<svg xmlns="http://www.w3.org/2000/svg" width="512" height="512" viewBox="0 0 512 512"><path fill="#4ABC96" d="M7.9,256C7.9,119,119,7.9,256,7.9C393,7.9,504.1,119,504.1,256c0,137-111.1,248.1-248.1,248.1C119,504.1,7.9,393,7.9,256z"/><path fill="#FFF" d="M383,234.3c-28.3-28.3-56.6-56.6-84.9-84.9c-17.9-17.9-50-4.7-50,20.7c0,14.1,0,28.2,0,42.4c-3.5-0.9-7.3-1.4-11.4-1.4c-27.1,0-54.3,0-81.4,0c-56.9,0-57.4,88.2-0.6,88.2c27.1,0,54.3,0,81.4,0c4.4,0,8.3-0.6,12-1.5c0,13,0,26,0,39c-0.2,1.8-0.1,3.6,0.1,5.4c0.8,12.6,8.4,20.7,17.9,24.2c9.3,4.6,20.6,4.4,30.4-4c1.6-1.2,3-2.6,4.3-4.1c27.5-27.5,55-55,82.4-82.4C394.6,264.5,394.3,245.6,383,234.3z"/></svg>